<?xml version="1.0" ?><svg viewBox="0 0 64 64" xmlns="http://www.w3.org/2000/svg"><path d="M47.748 62c-.42 0-.89-.15-1.23-.397-.405-.29-.405-.29-5.227-7.748-3.3-5.106-8.527-13.19-10.425-15.91-.048.003-.098.004-.148.004-1.265 0-6.507-3.774-7.028-5.327-.19.072-.403.126-.646.15-.032.004-.066.006-.1.007.998.804 1.417 2.153 1.05 3.482-.407 1.467-1.606 2.46-2.997 2.49.13.027.243.05.333.07.676.144 1.232.626 1.474 1.278.194.52.427 1.526-.187 2.42-.402.583-1.067.932-1.78.932-.12 0-.405 0-5.007-.498-.954-.104-1.705-.87-1.797-1.83-.057-.595-.228-2.404 1.412-2.953.266-.088.555-.13.904-.13.726 0 2.054.214 3.188.425-1.373-.507-2.09-1.456-2.238-2.944-.082-.825.26-1.77.887-2.468.62-.69 1.453-1.08 2.35-1.103-.848-.434-2.054-1.09-3.81-2.085-.525-.297-.89-.814-1-1.41-.072-.41-.17-1.455.504-2.328.09-.115.187-.22.293-.316-.062-.056-.125-.115-.19-.176-.966-.895-2.522-2.34-3.5-3.216-.582.265-1.19.498-1.736.623l.15.082c3.135 1.69 3.7 1.995 3.7 3.32 0 .422-.225 1.786-1.112 2.482h.05c.723 0 1.45.22 2.16.653 1.32.806 1.912 2.408 1.475 3.986-.444 1.6-1.758 2.676-3.27 2.676-.24 0-.48-.03-.716-.083-2.038-.47-3.03-1.522-3.22-3.413-.084-.874.282-1.882.96-2.635.312-.35.676-.627 1.074-.826-.495-.145-1.644-.56-2.89-1.095.507.904.64 2.02.325 3.153C9.276 33.17 7.793 34.4 6.09 34.4h-.002c-.266 0-.535-.03-.8-.092-2.443-.562-3.53-1.703-3.75-3.936-.097-.97.323-2.11 1.097-2.972.77-.86 1.806-1.338 2.918-1.353-.28-.238-.476-.47-.562-.683-.445-1.13.22-2.31.525-2.766.675-1.002 1.524-1.15 1.97-1.15.097 0 .208.007.304.02.043.008.083.013.128.022-.9-1.614-1.206-4.16-.856-6.443-.676.616-1.534.973-2.455.973-.268 0-.54-.03-.805-.092-2.467-.568-3.564-1.72-3.79-3.973-.096-.98.328-2.13 1.11-3 .79-.88 1.852-1.363 2.994-1.363.844 0 1.7.26 2.54.775 1.178.72 1.84 1.948 1.847 3.317 1.877-2.27 5.175-3.318 7.518-3.318.503 0 .976.046 1.404.136.746.157 1.44.457 2.067.84-.074-.292-.127-.606-.16-.946-.098-.98.326-2.128 1.107-2.998.79-.88 1.853-1.364 2.995-1.364.844 0 1.7.26 2.54.776 1.53.933 2.186 2.726 1.676 4.567-.312 1.125-.99 2.025-1.86 2.556.403.333.738.762.972 1.263.548-.35 1.078-.526 1.578-.526.366 0 .8.118 1.113.307.688.416.808.592 2.16 4.478 1.303 3.75 1.283 3.93 1.23 4.413-.034.31-.138.603-.297.86.17-.035.33-.053.484-.053.218 0 .5.044.705.114 1.08.36 5.4 5.563 5.606 6.507.055.244.07.49.042.74 2.553 1.426 7.742 4.29 13.806 7.435l2.317 1.2c7.174 3.717 7.31 3.788 7.97 5.293.678 1.557.894 3.82-.535 5.512-.528.624-1.06 1.012-1.484 1.272.033.937-.002 2.292-.88 3.353-.747.904-1.758 1.238-2.566 1.402-.217 1.107-.715 2.7-2.243 3.638-1.362.836-3.19.953-4.525 1.037-.27.018-.61.04-.833.064-.11.113-.284.304-.4.433-.57.618-1.214 1.323-2.26 1.323zM22.905 27.493c1.02.7 1.846 1.456 2.042 2.114l.048-.054c.58-.652 1.375-1.545 2.304-2.75.935-1.215 1.99-2.247 3-2.975l-.09.016c-.118.02-.234.03-.35.03-.857 0-1.638-.552-1.916-1.397l-1.82-5.53c-.05.048-.104.094-.16.14-.437.35-1.07.797-1.86.953 2.138 2.82 2.167 3.22 2.203 3.725.074 1.063-.79 3.272-2.057 4.642-.414.448-.865.812-1.345 1.086zm11.76-11.626c-.283 0-.57-.032-.85-.097-2.642-.61-3.817-1.837-4.056-4.237-.1-1.017.362-2.262 1.18-3.172.838-.932 1.966-1.446 3.175-1.446.9 0 1.816.28 2.72.834 1.617.987 2.31 2.887 1.768 4.842-.543 1.96-2.126 3.277-3.94 3.277zM10.11 8.605c-.246 0-.495-.03-.738-.084-2.163-.498-3.17-1.562-3.368-3.56-.09-.898.292-1.944.996-2.727C7.716 1.438 8.68 1 9.714 1c.755 0 1.516.23 2.26.685 1.367.835 1.98 2.497 1.527 4.136-.46 1.666-1.822 2.785-3.388 2.785z" fill="#FFF"/><path d="M12.998 13.974s-.52.075-1.077 1.348c-.556 1.273-.26 2.096-.26 2.096.447.15 1.115 0 1.19-.15s-.074-.786-.037-1.31.67-1.422.67-1.422l-.485-.562zm-5.925 14.58c-2.357-1.44-3.605.795-3.523 1.614.107 1.076.32 1.722 2.19 2.152 1.867.43 3.095-2.69 1.333-3.766zM5.76 31.068c-.84-.194-.938-.485-.986-.97-.037-.37.526-1.377 1.59-.728.793.485.24 1.892-.603 1.698zm25.068-9.42c.11-.036-2.23-6.812-2.414-6.924-.186-.112-.78.337-.78.337l2.23 6.777c-.002 0 .853-.15.964-.188zM5.61 10.11c-2.397-1.466-3.667.808-3.584 1.64.11 1.096.326 1.753 2.227 2.19s3.15-2.737 1.358-3.83zm-2.26 1.57c-.034-.345.494-1.29 1.49-.682.746.455.227 1.776-.564 1.594-.79-.182-.88-.455-.926-.91zm6.474-5.144c1.542.355 2.554-2.22 1.1-3.107C8.98 2.24 7.952 4.083 8.02 4.76c.088.886.264 1.42 1.806 1.774zM10.3 4.15c.605.368.184 1.44-.457 1.29-.64-.147-.714-.368-.75-.738-.03-.28.4-1.047 1.208-.553zm2.29 23.15c.11 0 .334-.71.334-.86 0-.15-5.21-2.927-5.423-2.957-.26-.037-.705.936-.63 1.123.074.187 5.608 2.695 5.72 2.695zm21.676-13.516c2.13.49 3.53-3.067 1.52-4.293-2.686-1.64-4.108.907-4.016 1.84.123 1.227.366 1.963 2.496 2.454zm.87-3.56c1.113.68.337 2.65-.843 2.38-1.18-.273-1.315-.68-1.382-1.36-.05-.517.737-1.928 2.226-1.02zM23.338 13.29c-1.68.627-1.056 2.17-.61 2.46.588.38 1 .532 1.973-.253.974-.784-.106-2.676-1.362-2.207zm.703 1.66c-.404.326-.575.263-.82.105-.185-.12-.444-.762.254-1.023.522-.195.97.59.567.918zm-3.204-1.123c.074-.337-1.523-2.845-3.826-3.332-2.303-.487-7.095.936-7.838 4.268-.743 3.333.41 6.178 1.04 6.328.63.15 2.897-1.086 2.897-1.086.296.075 6.425 5.877 6.537 5.915 3.195 1.073 4.68-3.48 4.643-4.006-.037-.523-4.717-6.363-4.717-6.363s1.19-1.385 1.263-1.722zm-9.843 5.428s-1.152-3.594 1.04-5.54c2.192-1.947 5.015-1.16 5.795-.786.78.374.78.936.78.936s-3.864 4.828-7.615 5.39zm11.7 3.406c-.11.3-1.56 1.197-1.56 1.197s.15-1.46.037-1.535-.78-.3-.817 0c-.037.3.074 1.348-.11 1.348-.187 0-.893-.824-.893-.936 0-.112.297-2.583.297-2.583s-.78-.523-.817-.26c-.037.26-.297 2.17-.297 2.17s-.78-.674-.78-.86c0-.188.334-2.66.334-2.66s-.93.113-.966.226c-.036.112 0 1.722-.222 1.76-.223.036-1.3-1.536-1.337-1.686-.026-.11 2.6-1.834 2.713-1.834.112 0 4.532 5.354 4.42 5.653zm2.233-16.11c-2.398-1.465-3.668.81-3.585 1.642.11 1.095.327 1.752 2.228 2.19 1.9.438 3.15-2.737 1.358-3.832zm-1.334 2.667c-.954-.22-1.063-.55-1.118-1.1-.04-.417.596-1.558 1.8-.823.9.55.272 2.143-.682 1.923zm38.03 35.567c-.41-.936-.63-.973-9.36-5.503-8.73-4.53-15.565-8.422-15.565-8.422s.743-.786.67-1.123c-.075-.337-3.938-4.904-4.273-5.016-.334-.113-2.266.823-4.197 3.33-1.932 2.51-3.332 3.75-3.27 4.007.15.6 4.718 3.856 5.09 3.856s.483-.262.93-.262c.445 0 15.786 24.11 16.046 24.296.26.187 1.15-1.198 1.82-1.572.67-.374 3.677-.037 5.2-.973 1.523-.935 1.3-3.293 1.597-3.593.297-.3 1.97-.112 2.712-1.01.743-.9.223-2.734.446-3.146.223-.41 1.077-.486 1.932-1.496.853-1.012.63-2.435.222-3.37zM30.717 34.077c-.41-.15-2.49-2.246-2.563-2.433-.083-.21 3.79-4.867 4.272-4.455.483.41 2.563 2.582 2.526 2.77-.038.186-3.827 4.267-4.235 4.117zM44.98 51.222c-.222 0-.593-.075-.593-.075s-.63-.936-.63-1.048c0-.113.52-2.846.52-2.846l-.558-.262s-.447 2.47-.595 2.396c-.15-.075-.63-.71-.594-.824.038-.112.558-2.62.558-2.62s-.67-.412-.743-.3c-.074.113-.37 1.835-.557 1.76-.186-.075-8.432-11.942-8.878-12.69-.138-.232 3.01-3.146 3.194-2.996.186.15 6.612 4.68 9.77 6.364 3.156 1.685 6.24 2.995 6.24 2.995s2.005 5.765 2.34 7.562c.333 1.796.11 3.48-.15 3.743-.26.262-.78.112-.78.112s.557-2.546.297-2.695-.965-.262-.965-.112-.15 2.808-.41 2.808-1.076-.075-1.076-.187.742-2.66.556-2.66c-.186 0-.89-.224-.89-.036 0 .187-.224 2.583-.372 2.62-.15.037-.594.15-.63-.075-.038-.226.26-2.77.148-2.81-.11-.036-.63-.224-.67-.036-.036.187-.26 2.546-.37 2.546-.11 0-1.152-.412-1.152-.412s.446-2.546.334-2.658c-.11-.112-.854-.337-.854-.112 0 .225-.15 2.733-.446 2.77-.297.037-.966-.037-1.077-.15-.11-.112.52-3.07.334-3.145-.185-.075-.853-.187-.853-.075s-.224 3.144-.446 3.144zm15.08-3.33c-.965.71-1.41 1.047-1.56 1.646s.112 2.022-.408 2.695c-.52.674-1.894.56-2.414 1.235-.52.674-.966 2.658-2.006 3.407-1.04.75-4.83.936-5.052.786-.223-.15-3.53-5.277-3.157-5.202.37.075 4.94 1.048 7.058 1.273 2.118.226 3.233-1.01 3.12-2.844-.11-1.834-1.968-9.022-1.968-9.022.297.112 6.686 3.182 6.91 3.52.222.335.445 1.795-.52 2.507zM14.995 31.316c-1.784-1.09-2.73.602-2.668 1.222.08.814.243 1.303 1.657 1.628 1.416.327 2.345-2.036 1.01-2.85zM14 33.165c-.587-.135-.655-.34-.688-.678-.026-.258.367-.96 1.11-.508.554.338.168 1.32-.42 1.185zm4.124-5.94c-.557.038-.41.862-.41.862s4.756 2.695 5.127 2.658c.372-.037.224-.262.15-.636-.074-.375-4.514-2.907-4.866-2.884zm-2.042 12.88c-.11.036-.037.823-.037.823s4.495.487 4.792.487c.297 0 .074-.6.074-.6s-4.247-.906-4.828-.71zm5.477-5.82c-1.506-.92-2.302.508-2.25 1.03.068.687.205 1.1 1.397 1.374 1.193.274 1.977-1.718.852-2.405zm-.838 1.56c-.496-.115-.553-.287-.58-.572-.023-.217.31-.81.934-.428.468.284.142 1.113-.354 1zm9.178-4.912c-.26 0-.67.6-.67.6s1.45 1.234 1.56 1.234c.112 0 .558-.524.558-.674 0-.15-1.448-1.16-1.448-1.16zm5.534 3.593c-.15-.037-.557.524-.52.636.037.112 3.046 4.455 3.27 4.642.222.187.853-.412.853-.412s-3.32-4.795-3.603-4.866z"/></svg>